<?xml version="1.0" encoding="UTF-8" standalone="no"?>
<svg
   width="120"
   height="140"
   viewBox="0 0 120 140"
   version="1.1"
   id="svg14"
   sodipodi:docname="smiling_face.svg"
   inkscape:version="1.4 (86a8ad7, 2024-10-11)"
   xmlns:inkscape="http://www.inkscape.org/namespaces/inkscape"
   xmlns:sodipodi="http://sodipodi.sourceforge.net/DTD/sodipodi-0.dtd"
   xmlns:xlink="http://www.w3.org/1999/xlink"
   xmlns="http://www.w3.org/2000/svg"
   xmlns:svg="http://www.w3.org/2000/svg">
  <sodipodi:namedview
     id="namedview14"
     pagecolor="#ffffff"
     bordercolor="#000000"
     borderopacity="0.25"
     inkscape:showpageshadow="2"
     inkscape:pageopacity="0.0"
     inkscape:pagecheckerboard="0"
     inkscape:deskcolor="#d1d1d1"
     inkscape:zoom="5.7642857"
     inkscape:cx="60.024783"
     inkscape:cy="70"
     inkscape:window-width="1920"
     inkscape:window-height="1009"
     inkscape:window-x="-8"
     inkscape:window-y="-8"
     inkscape:window-maximized="1"
     inkscape:current-layer="g14" />
  <defs
     id="defs2">
    <linearGradient
       id="empty_state_file_happy-c"
       x1="91.284%"
       x2="25.707%"
       y1="100%"
       y2="0%">
      <stop
         offset="0%"
         stop-color="#003C7D"
         id="stop1" />
      <stop
         offset="1"
         stop-color="#6B4862"
         id="stop2"
         style="stop-color:#4d89ca;stop-opacity:1;" />
    </linearGradient>
    <circle
       id="empty_state_file_happy-b"
       cx="56"
       cy="76.614"
       r="56" />
    <filter
       id="empty_state_file_happy-a"
       width="1.0857143"
       height="1.1035714"
       x="-0.042857143"
       y="-0.042857143"
       filterUnits="objectBoundingBox">
      <feOffset
         dy="2"
         in="SourceAlpha"
         result="shadowOffsetOuter1"
         id="feOffset2" />
      <feGaussianBlur
         in="shadowOffsetOuter1"
         result="shadowBlurOuter1"
         stdDeviation="2"
         id="feGaussianBlur2" />
      <feColorMatrix
         in="shadowBlurOuter1"
         values="0 0 0 0 0   0 0 0 0 0   0 0 0 0 0  0 0 0 0.106063179 0"
         id="feColorMatrix2" />
    </filter>
    <path
       id="empty_state_file_happy-d"
       d="M56,122.807018 C86.927946,122.807018 112,97.6721263 112,66.6666667 C112,59.6606665 112,37.4384443 112,0 L0,0 C0,23.774138 0,45.9963602 0,66.6666667 C0,97.6721263 25.072054,122.807018 56,122.807018 Z" />
    <path
       id="empty_state_file_happy-f"
       d="M22,6.01503759 L84.3146067,6.01503759 L100.5,22.556391 L100.5,114.829574 L100.5,114.829574 C100.5,124.218415 92.8888407,131.829574 83.5,131.829574 L31,131.829574 L31,131.829574 C21.6111593,131.829574 14,124.218415 14,114.829574 L14,14.0150376 L14,14.0150376 C14,9.5967596 17.581722,6.01503759 22,6.01503759 Z" />
  </defs>
  <g
     fill="none"
     fill-rule="evenodd"
     transform="translate(4 2)"
     id="g14">
    <use
       fill="#000"
       filter="url(#empty_state_file_happy-a)"
       xlink:href="#empty_state_file_happy-b"
       id="use2" />
    <use
       fill="url(#empty_state_file_happy-c)"
       xlink:href="#empty_state_file_happy-b"
       id="use3" />
    <g
       transform="translate(0 10)"
       id="g11">
      <mask
         id="empty_state_file_happy-e"
         fill="#fff">
        <use
           xlink:href="#empty_state_file_happy-d"
           id="use4" />
      </mask>
      <g
         mask="url(#empty_state_file_happy-e)"
         id="g5">
        <use
           fill="#FFF"
           xlink:href="#empty_state_file_happy-f"
           id="use5" />
        <path
           stroke="#A1ACBA"
           stroke-width="2"
           d="M99.5,22.9642476 L83.8940075,7.01503759 L22,7.01503759 C18.1340068,7.01503759 15,10.1490443 15,14.0150376 L15,114.829574 C15,123.66613 22.163444,130.829574 31,130.829574 L83.5,130.829574 C92.336556,130.829574 99.5,123.66613 99.5,114.829574 L99.5,22.9642476 Z"
           id="path5" />
      </g>
      <path
         stroke="#A1ACBA"
         stroke-width="2"
         d="M84.8002454,27.5045043 C87.4060329,25.0223449 91.4154529,21.2660453 91.7879265,20.6269769 C92.0921888,20.1049414 92.2011803,19.5697888 92.2011803,18.5540391 C92.2011803,17.9213416 92.0599129,17.3140076 91.7659798,16.6778758 C91.2745815,15.6143886 90.3683274,14.4694369 88.765383,12.8381982 C88.2386259,12.302143 86.3189539,10.4445628 84.8002454,8.96835098 L84.8002454,27.5045043 Z"
         mask="url(#empty_state_file_happy-e)"
         transform="rotate(135 88.5 18.226)"
         id="path6" />
      <g
         fill="#000"
         mask="url(#empty_state_file_happy-e)"
         opacity=".07"
         id="g10">
        <g
           transform="translate(23 81)"
           id="g9">
          <rect
             width="46.716"
             height="6.214"
             id="rect6" />
          <rect
             width="68.812"
             height="6.214"
             y="8.7"
             id="rect7" />
          <rect
             width="42.297"
             height="6.214"
             y="20.506"
             id="rect8" />
          <rect
             width="52.398"
             height="6.214"
             y="31.07"
             id="rect9" />
        </g>
      </g>
    </g>
    <path
       stroke="#A1ACBA"
       stroke-linecap="round"
       stroke-width="2"
       d="M13 14L4 5M18 9L18 0M1 20L10 20"
       id="path11" />
    <g
       transform="translate(28.491 43.21)"
       id="g13">
      <path
         stroke="#A1ACBA"
         stroke-linecap="round"
         stroke-linejoin="round"
         stroke-width="2"
         d="M11.5087719,17.7894737 C28.0087719,26.7894737 44.5087719,17.7894737 44.5087719,17.7894737"
         id="path12" />
      <circle
         cx="48.009"
         cy="5.289"
         r="3.5"
         fill="#A1ACBA"
         id="circle12" />
      <circle
         cx="8.009"
         cy="5.289"
         r="3.5"
         fill="#A1ACBA"
         id="circle13" />
    </g>
  </g>
</svg>
